<?xml version="1.0" standalone="no"?>
<!DOCTYPE svg PUBLIC "-//W3C//DTD SVG 20010904//EN"
 "http://www.w3.org/TR/2001/REC-SVG-20010904/DTD/svg10.dtd">
<svg version="1.0" xmlns="http://www.w3.org/2000/svg"
 width="818.000000pt" height="818.000000pt" viewBox="0 0 818.000000 818.000000"
 preserveAspectRatio="xMidYMid meet">
<metadata>
Created by potrace 1.14, written by Peter Selinger 2001-2017
</metadata>
<g transform="translate(0.000000,818.000000) scale(0.100000,-0.100000)"
fill="#000000" stroke="none">
<path d="M4026 8173 c-1 -1 -58 -4 -127 -7 -68 -2 -124 -5 -124 -6 0 -2 -55
-6 -127 -11 -26 -1 -46 -5 -44 -8 2 -3 -19 -7 -47 -8 -45 -1 -102 -8 -102 -13
0 -2 -43 -8 -87 -11 -21 -2 -38 -6 -38 -9 0 -4 -6 -7 -12 -8 -7 -1 -29 -3 -48
-5 -19 -2 -42 -7 -50 -10 -8 -4 -28 -8 -45 -11 -16 -2 -30 -5 -30 -6 0 -2 -34
-10 -60 -14 -11 -2 -20 -4 -20 -5 0 -2 -11 -4 -25 -7 -14 -2 -32 -7 -40 -11
-8 -3 -17 -7 -20 -7 -43 -10 -108 -32 -119 -40 -12 -9 -13 -8 -6 4 7 12 6 13
-6 3 -20 -16 -101 -43 -111 -37 -4 3 -8 1 -8 -5 0 -6 -16 -13 -35 -17 -19 -3
-35 -11 -35 -17 0 -6 -3 -7 -7 -4 -3 4 -12 2 -20 -4 -7 -6 -13 -8 -13 -5 0 4
-10 1 -22 -6 -13 -7 -26 -13 -30 -14 -5 -1 -11 -3 -15 -4 -5 -1 -11 -2 -15 -1
-5 0 -8 -3 -8 -7 0 -4 -20 -14 -45 -21 -25 -7 -45 -17 -45 -22 0 -5 -3 -8 -7
-7 -5 1 -25 -6 -47 -15 -21 -9 -42 -17 -46 -17 -5 0 -10 -5 -12 -11 -2 -5 -10
-11 -18 -13 -18 -3 -73 -28 -80 -37 -7 -8 -43 -22 -52 -21 -5 1 -8 -2 -8 -8 0
-5 -6 -10 -14 -10 -8 0 -21 -6 -28 -14 -8 -7 -24 -17 -36 -20 -12 -4 -22 -12
-22 -17 0 -6 -4 -8 -9 -4 -5 3 -17 -2 -25 -11 -9 -8 -16 -13 -16 -10 0 3 -9
-2 -20 -12 -12 -9 -22 -15 -23 -12 -1 3 -9 -1 -17 -7 -56 -47 -83 -66 -75 -53
8 14 -32 -14 -45 -32 -3 -3 -12 -8 -20 -10 -8 -2 -21 -11 -28 -20 -7 -10 -20
-18 -28 -18 -8 0 -14 -4 -14 -10 0 -5 -7 -10 -15 -10 -8 0 -15 -4 -15 -10 0
-5 -6 -10 -14 -10 -8 0 -17 -7 -20 -16 -4 -9 -9 -14 -12 -11 -3 3 -16 -5 -29
-19 -12 -13 -25 -24 -29 -24 -7 0 -44 -29 -65 -52 -8 -10 -19 -18 -24 -18 -4
0 -21 -13 -37 -30 -16 -16 -34 -30 -40 -30 -5 0 -10 -4 -10 -10 0 -5 -4 -10
-9 -10 -4 0 -43 -34 -85 -75 -42 -42 -76 -72 -76 -68 0 4 -11 -8 -25 -27 -14
-19 -25 -30 -25 -26 0 5 -13 -7 -29 -27 -15 -20 -31 -34 -35 -30 -3 3 -6 1 -6
-6 0 -7 -17 -28 -37 -48 -21 -19 -38 -39 -38 -44 0 -5 -4 -9 -9 -8 -4 0 -20
-16 -34 -35 -14 -20 -29 -36 -34 -36 -4 0 -8 -5 -8 -10 0 -6 -12 -22 -26 -35
-15 -14 -24 -25 -21 -25 3 0 -4 -11 -16 -24 -55 -60 -87 -99 -87 -106 0 -5
-11 -21 -25 -36 -13 -14 -30 -39 -37 -54 -7 -16 -15 -27 -19 -25 -3 2 -16 -15
-29 -38 -13 -23 -30 -48 -37 -55 -7 -7 -13 -20 -13 -28 0 -8 -4 -12 -10 -9 -5
3 -12 -6 -16 -20 -3 -14 -10 -25 -16 -25 -5 0 -7 -4 -4 -9 4 -5 2 -11 -3 -13
-5 -1 -11 -10 -13 -18 -2 -8 -11 -23 -20 -34 -10 -11 -18 -26 -18 -33 0 -7 -4
-13 -9 -13 -5 0 -14 -12 -20 -27 -6 -16 -24 -50 -40 -78 -16 -27 -27 -53 -24
-57 2 -5 0 -8 -5 -8 -10 0 -38 -60 -34 -73 1 -4 -5 -10 -13 -13 -8 -3 -12 -10
-9 -15 3 -5 0 -9 -5 -9 -6 0 -11 -9 -11 -19 0 -11 -5 -23 -11 -26 -6 -4 -8
-13 -5 -21 3 -8 2 -14 -2 -14 -8 0 -38 -62 -34 -72 1 -5 -3 -8 -9 -8 -6 0 -9
-7 -5 -15 3 -8 2 -15 -3 -15 -4 0 -13 -18 -20 -40 -6 -22 -15 -40 -19 -40 -4
0 -8 -8 -9 -17 -1 -10 -6 -29 -11 -43 -5 -14 -10 -28 -11 -32 -1 -4 -9 -24
-17 -43 -8 -20 -12 -40 -9 -45 3 -4 0 -10 -5 -12 -6 -2 -12 -10 -13 -18 -2 -8
-6 -21 -10 -27 -5 -7 -5 -13 -1 -13 3 0 2 -6 -3 -12 -6 -7 -9 -21 -8 -31 2
-10 -1 -14 -8 -10 -6 4 -8 0 -4 -10 3 -10 2 -17 -4 -17 -6 0 -7 -4 -4 -10 3
-5 0 -10 -7 -10 -9 0 -9 -3 2 -10 8 -5 10 -10 5 -10 -10 0 -15 -17 -18 -62 -1
-10 -4 -18 -7 -18 -4 0 -7 -6 -8 -12 -3 -26 -10 -63 -12 -65 -2 -2 -4 -7 -5
-13 -1 -5 -3 -11 -5 -12 -2 -4 -7 -27 -15 -73 -10 -54 -13 -70 -15 -70 -1 0
-4 -13 -6 -30 -4 -42 -8 -58 -18 -74 -7 -10 -6 -12 4 -6 10 6 11 4 4 -6 -4 -8
-10 -23 -11 -34 -9 -63 -12 -75 -18 -84 -3 -6 -1 -11 6 -11 8 0 8 -4 2 -12 -6
-7 -10 -20 -10 -28 -1 -38 -13 -121 -19 -132 -5 -7 -3 -8 6 -3 9 6 11 4 5 -5
-13 -21 -18 -136 -18 -370 0 -189 7 -385 14 -385 1 0 3 -25 5 -55 1 -30 5 -66
9 -80 3 -14 7 -39 9 -56 1 -17 6 -36 10 -42 4 -7 2 -12 -6 -12 -9 0 -9 -3 2
-10 8 -5 11 -10 5 -10 -5 0 -3 -5 5 -10 11 -7 11 -10 2 -10 -8 0 -10 -5 -5
-12 9 -15 13 -33 15 -71 0 -15 5 -30 9 -33 4 -2 6 -13 4 -24 -2 -11 0 -20 4
-20 4 0 7 -10 6 -22 -1 -13 2 -29 8 -35 5 -7 7 -13 4 -13 -3 0 -1 -15 4 -32 6
-18 12 -42 13 -53 6 -33 30 -120 36 -125 3 -3 6 -16 8 -30 1 -14 5 -32 9 -40
9 -23 12 -31 25 -82 7 -27 16 -48 20 -48 5 0 8 -9 8 -19 0 -11 9 -40 19 -64
11 -25 17 -48 14 -51 -4 -3 -1 -6 6 -6 8 0 11 -7 7 -15 -3 -8 -1 -15 4 -15 6
0 10 -7 10 -15 0 -8 4 -24 10 -35 5 -11 14 -29 20 -40 5 -11 10 -27 10 -35 0
-8 5 -15 10 -15 6 0 10 -9 10 -19 0 -11 5 -23 10 -26 6 -4 8 -11 5 -16 -4 -5
-1 -9 5 -9 6 0 8 -4 5 -10 -3 -5 -1 -10 4 -10 6 0 11 -9 11 -20 0 -11 4 -20 8
-20 5 0 15 -18 22 -40 7 -21 17 -37 21 -34 4 2 6 -5 4 -16 -2 -12 2 -23 10
-27 8 -3 13 -9 10 -13 -3 -4 2 -13 10 -20 8 -7 15 -21 15 -31 0 -11 4 -19 9
-19 7 0 19 -27 19 -46 1 -3 10 -14 22 -24 12 -10 22 -22 22 -27 1 -12 11 -37
20 -48 18 -22 57 -85 53 -85 -3 0 5 -11 16 -24 12 -13 20 -27 19 -31 -1 -4 7
-13 17 -21 10 -7 15 -14 11 -14 -7 0 11 -25 40 -56 7 -8 11 -14 7 -14 -4 0 0
-6 7 -14 7 -7 20 -24 28 -36 8 -13 23 -32 32 -42 10 -10 18 -22 18 -28 0 -5 5
-10 11 -10 5 0 7 -4 4 -10 -3 -5 1 -10 9 -10 14 0 22 -14 14 -23 -2 -1 12 -16
30 -33 17 -17 32 -35 32 -39 0 -4 10 -17 23 -29 12 -11 33 -36 45 -54 13 -18
28 -29 34 -26 7 4 8 2 4 -4 -4 -7 -2 -12 3 -12 6 0 11 -7 11 -16 0 -8 5 -12
10 -9 6 3 10 2 10 -4 0 -5 19 -29 42 -53 23 -24 41 -47 39 -53 -1 -5 0 -7 4
-3 10 10 45 -24 38 -36 -3 -6 -3 -8 2 -4 4 4 29 -15 55 -42 26 -27 50 -47 53
-44 3 3 8 -4 12 -15 3 -12 11 -21 17 -21 5 0 22 -13 36 -28 15 -16 37 -34 50
-41 12 -7 20 -16 17 -22 -4 -5 -1 -9 4 -9 11 0 39 -21 78 -57 13 -12 23 -20
23 -17 0 5 16 -7 53 -41 12 -11 48 -38 80 -59 31 -22 57 -43 57 -48 0 -5 5 -6
10 -3 6 3 10 1 10 -4 0 -6 7 -11 15 -11 8 0 15 -4 15 -10 0 -5 7 -10 15 -10 8
0 15 -4 15 -10 0 -5 7 -10 15 -10 7 0 19 -8 24 -17 6 -10 11 -13 11 -8 0 6 3
5 8 -1 4 -6 28 -22 54 -36 26 -14 45 -28 41 -32 -3 -3 3 -6 15 -6 12 0 22 -4
22 -8 0 -5 16 -14 35 -22 19 -8 35 -17 35 -21 0 -4 16 -13 34 -20 19 -7 33
-15 31 -19 -2 -3 5 -7 16 -7 10 -1 26 -9 35 -17 9 -9 20 -14 25 -11 5 4 9 2 9
-3 0 -9 69 -38 83 -34 5 1 6 -1 3 -6 -5 -8 49 -32 68 -31 5 0 12 -4 16 -11 4
-6 16 -12 28 -13 11 0 18 -5 16 -9 -3 -4 0 -9 5 -9 17 -2 23 -4 71 -25 25 -10
48 -18 53 -16 4 1 7 -3 7 -9 0 -5 4 -8 9 -4 5 3 16 -1 24 -9 8 -8 17 -13 19
-10 3 2 26 -4 51 -15 25 -11 48 -17 51 -14 3 4 6 2 6 -4 0 -5 7 -10 15 -11 8
-1 22 -3 30 -4 8 -1 15 -4 15 -8 0 -4 6 -7 13 -8 24 -2 47 -8 53 -15 4 -4 17
-7 29 -7 12 0 25 -3 29 -7 3 -4 17 -8 29 -10 12 -2 29 -6 37 -10 18 -7 28 -10
56 -17 12 -2 38 -9 57 -14 20 -6 38 -8 41 -5 3 3 12 0 20 -6 8 -7 20 -10 26
-6 5 3 10 2 10 -4 0 -5 8 -10 18 -9 9 0 28 -3 42 -6 14 -3 37 -7 53 -8 15 -1
27 -5 27 -8 0 -3 8 -6 18 -7 57 -3 129 -12 142 -17 8 -3 38 -8 65 -10 28 -3
50 -6 50 -7 0 -1 18 -2 40 -3 22 -1 45 -5 52 -9 6 -4 15 -3 18 3 4 7 11 7 18
2 15 -11 43 -12 319 -16 135 -2 215 1 211 7 -3 5 2 6 13 0 11 -5 28 -8 39 -6
29 4 132 14 190 17 28 2 50 4 50 5 0 2 26 6 100 15 22 2 40 5 40 6 0 1 16 3
35 5 38 5 85 13 85 15 0 1 11 3 25 6 33 5 79 14 110 20 14 3 31 6 38 6 6 1 12
5 12 9 0 4 9 6 20 4 11 -2 22 0 25 5 3 5 14 7 25 5 11 -2 20 1 20 7 0 6 9 8
20 5 11 -3 20 -2 20 2 0 4 6 8 13 9 28 2 72 14 83 23 6 5 13 6 16 3 4 -3 20 2
37 10 17 9 34 15 38 15 4 -1 15 0 23 4 58 23 146 51 153 49 4 -1 7 3 7 9 0 6
7 9 15 5 8 -3 20 0 27 7 8 7 20 13 28 15 8 2 33 12 56 23 24 10 50 19 58 19 9
0 16 5 16 10 0 6 9 10 19 10 11 0 23 5 26 10 4 6 11 8 16 5 5 -4 9 -1 9 4 0 6
6 11 13 11 7 0 19 6 25 12 7 7 18 13 25 13 16 1 91 38 95 48 2 4 9 7 16 7 18
0 66 24 66 33 0 4 5 7 11 7 6 0 24 9 40 21 16 11 29 18 29 15 0 -5 63 33 86
53 7 6 15 7 18 4 3 -4 6 -1 6 5 0 7 7 12 15 12 8 0 15 5 15 11 0 5 5 7 10 4 6
-3 10 -1 10 4 0 6 7 11 15 11 9 0 18 7 21 15 4 8 12 15 18 15 7 0 30 13 53 30
22 16 44 26 48 22 5 -4 6 -2 3 3 -3 6 0 16 8 23 8 7 14 9 14 5 0 -4 7 1 15 11
8 11 15 16 15 12 0 -4 6 -1 14 6 7 7 24 20 36 28 12 8 36 27 54 42 17 15 39
30 49 34 9 3 15 10 12 15 -4 5 0 9 8 9 8 0 18 7 21 16 4 9 9 14 12 11 4 -3 22
9 40 28 19 19 36 35 39 35 4 0 26 20 51 45 24 25 44 43 44 41 0 -3 50 45 110
104 61 60 110 114 110 120 0 6 5 8 10 5 6 -3 10 -2 10 3 0 9 48 67 108 129 12
13 22 27 22 31 0 4 9 13 20 20 12 7 18 17 15 22 -3 6 -1 10 5 10 6 0 20 16 31
35 12 20 26 32 32 28 7 -3 9 -3 5 2 -4 4 7 27 25 50 18 24 39 53 47 65 8 12
29 41 47 65 18 23 29 45 26 49 -3 3 2 8 11 12 9 3 16 12 16 20 0 7 7 17 16 22
9 5 15 11 14 13 -2 7 13 43 24 56 29 33 34 41 30 46 -2 2 2 10 11 17 8 7 15
19 15 26 0 8 5 14 12 14 6 0 8 3 5 6 -4 4 2 19 11 33 10 14 27 44 37 66 11 22
22 42 25 45 9 9 34 65 32 73 -1 4 3 7 9 7 6 0 9 7 5 15 -3 8 -1 15 4 15 6 0
10 7 10 15 0 8 5 15 10 15 6 0 10 9 10 19 0 11 5 23 10 26 6 4 8 11 5 16 -4 5
-3 9 2 9 4 0 16 21 26 48 11 26 23 56 28 67 11 25 32 77 34 88 2 4 4 10 5 15
1 4 2 10 1 15 0 4 4 7 10 7 5 0 7 5 3 11 -3 6 -2 14 4 18 6 3 13 19 16 35 3
16 10 34 16 40 14 14 13 29 -2 21 -7 -4 -6 -1 2 7 14 12 17 19 25 58 2 8 4 16
5 18 2 1 4 7 5 12 1 6 4 12 5 15 1 3 3 8 4 13 1 4 5 13 9 19 5 7 6 13 3 13 -3
0 2 21 10 48 16 52 22 71 29 105 16 75 29 124 37 141 7 14 7 16 -2 11 -9 -5
-9 -1 1 16 7 13 11 25 10 27 -1 1 3 27 9 57 6 30 9 59 5 65 -3 5 -2 10 2 10 8
0 12 17 18 90 2 19 4 36 5 38 1 1 3 10 4 20 1 9 5 23 9 29 5 8 4 13 -3 13 -6
0 -8 5 -5 11 8 11 15 75 19 156 1 29 5 56 9 59 4 4 2 13 -4 21 -9 9 -8 13 0
13 13 0 10 22 -4 32 -7 5 -6 8 1 8 14 0 14 310 0 310 -7 0 -8 3 -1 8 13 9 15
52 2 52 -5 0 -4 7 3 15 10 12 10 15 -1 15 -11 0 -11 2 1 10 8 5 11 10 5 10 -5
0 -11 33 -13 73 -4 73 -9 132 -12 132 -1 0 -3 27 -6 60 -2 33 -7 67 -10 75 -4
8 -8 30 -9 48 -3 33 -10 74 -21 122 -3 14 -7 36 -9 50 -10 61 -17 96 -24 105
-4 6 -6 20 -5 33 0 12 -3 22 -8 22 -5 0 -6 5 -3 10 4 6 2 16 -3 23 -5 7 -10
20 -11 30 -1 9 -2 26 -3 37 -1 11 -5 20 -8 20 -4 0 -7 6 -8 13 0 6 -3 19 -5
27 -2 8 -7 29 -12 45 -4 17 -12 36 -18 43 -5 6 -7 12 -3 12 3 0 -1 16 -9 36
-8 20 -15 45 -15 56 0 10 -4 17 -9 13 -6 -3 -8 4 -6 15 2 11 0 20 -4 20 -4 0
-8 6 -9 13 -1 20 -36 112 -45 118 -5 3 -8 8 -7 10 1 4 -4 23 -16 54 -4 11 -6
23 -6 28 1 4 -3 7 -8 7 -6 0 -10 9 -10 20 0 11 -4 20 -10 20 -5 0 -7 7 -4 15
4 8 1 15 -5 15 -6 0 -10 3 -9 8 1 4 -16 43 -37 87 -22 44 -39 83 -37 88 1 4
-2 7 -6 7 -5 0 -19 24 -32 53 -13 28 -27 54 -30 57 -8 6 -53 93 -52 100 0 3
-6 9 -14 13 -8 5 -12 12 -9 18 4 5 1 9 -4 9 -6 0 -11 7 -11 15 0 8 -4 15 -10
15 -5 0 -10 7 -10 15 0 8 -4 15 -10 15 -5 0 -10 7 -10 15 0 8 -8 23 -18 33
-11 11 -25 33 -33 50 -7 17 -16 29 -20 26 -4 -2 -10 4 -14 15 -5 16 -16 32
-55 79 -6 6 -8 12 -5 12 4 0 -2 9 -48 63 -10 12 -27 36 -38 54 -11 18 -24 33
-29 33 -5 0 -12 9 -15 20 -3 11 -13 20 -21 20 -8 0 -13 3 -12 8 2 4 -7 17 -20
30 -13 13 -20 28 -16 35 4 7 4 9 0 5 -8 -6 -56 34 -56 47 0 3 -15 20 -32 38
-18 17 -32 35 -30 39 1 4 -3 8 -8 8 -12 0 -80 70 -80 82 0 4 -7 8 -16 8 -8 0
-12 5 -9 10 3 6 -1 10 -10 10 -9 0 -13 5 -10 10 3 6 1 10 -5 10 -6 0 -30 19
-54 43 -63 62 -126 117 -132 116 -3 0 -18 15 -35 33 -16 18 -29 29 -29 25 0
-4 -11 3 -24 16 -14 14 -45 40 -70 58 -25 18 -46 37 -46 42 0 5 -8 6 -17 3
-10 -4 -14 -4 -10 0 6 7 -134 112 -141 106 -2 -2 -12 7 -23 19 -10 12 -19 20
-19 16 0 -3 -37 19 -81 49 -45 30 -88 54 -95 54 -8 0 -14 5 -14 10 0 6 -4 10
-10 10 -5 0 -26 11 -46 25 -20 14 -40 22 -45 19 -5 -3 -9 0 -9 5 0 6 -6 11
-12 11 -7 0 -24 9 -38 20 -14 11 -33 20 -42 20 -10 0 -18 5 -18 12 0 6 -3 9
-6 5 -3 -3 -24 5 -45 19 -21 13 -39 21 -39 18 0 -4 -7 -1 -15 6 -8 7 -15 9
-15 4 0 -5 -4 -3 -9 5 -5 8 -16 16 -23 17 -8 1 -40 13 -71 28 -32 14 -59 26
-62 26 -2 0 -14 4 -27 9 -13 5 -27 9 -32 9 -5 0 -12 5 -16 11 -3 7 -21 13 -38
14 -18 1 -32 5 -32 9 0 3 -13 9 -30 13 -16 4 -30 11 -30 16 0 6 -4 8 -9 5 -5
-3 -25 1 -45 9 -20 8 -36 12 -36 9 0 -4 -6 -2 -13 4 -7 6 -24 13 -39 16 -14 2
-35 9 -45 14 -10 5 -23 7 -30 5 -6 -2 -14 1 -18 6 -3 6 -19 11 -36 11 -16 0
-29 4 -29 8 0 7 -31 13 -82 15 -10 1 -18 4 -18 8 0 3 -31 11 -69 18 -96 17
-106 19 -106 21 0 3 -40 10 -80 14 -22 3 -40 5 -40 6 0 3 -38 9 -90 16 -133
16 -221 24 -330 29 -49 2 -90 4 -90 5 0 2 -197 5 -199 3z"/>
</g>
</svg>
